<svg id="Layer_1" data-name="Layer 1" xmlns="http://www.w3.org/2000/svg" viewBox="0 0 150 150"><defs><style>.cls-1{fill:#1f9abf;}.cls-2{fill:#1786a0;}.cls-3{fill:#f0575d;}.cls-4{fill:#febd23;}.cls-5{fill:#fff;}.cls-6{fill:#665a8c;}</style></defs><title>UI_Icons_v1</title><circle class="cls-1" cx="75" cy="75" r="72.6"/><path class="cls-2" d="M147.6,75c0-2.13-.12-4.24-.3-6.33L125.6,47l-10.39,2.9L103.36,38,89.42,50.46,79,51.74,85.27,58l-1,2.29L73.7,49.7l-4.27,2.08L60.8,43.16l-4.39,3L51.54,59.52l.09,1L28.79,69.77,41.44,82.42,43,94.2l-14.44,6.13,9.39,9.39-1,1.64,36.19,36.19c.63,0,1.26,0,1.89,0A72.61,72.61,0,0,0,147.6,75Z"/><path class="cls-3" d="M33.75,102.75a6.8,6.8,0,0,0,3.17-.79v9.4h11.9a6.81,6.81,0,1,1,12.12,0H73.7V102a6.81,6.81,0,1,1,0-12V80.53H60.9a6.81,6.81,0,1,0-12,0H36.92v9.4a6.8,6.8,0,1,0-3.17,12.82Z"/><path class="cls-4" d="M33.75,71.92a6.68,6.68,0,0,0,3.17-.79v9.4H48.86a6.81,6.81,0,1,1,12,0H73.7V71.12a6.81,6.81,0,1,1,0-12V49.7H60.91a6.74,6.74,0,0,0,.79-3.17,6.81,6.81,0,1,0-13.61,0,6.62,6.62,0,0,0,.79,3.17h-12v9.4a6.8,6.8,0,1,0-3.17,12.82Z"/><path class="cls-5" d="M81,53a6.93,6.93,0,0,0,3.28.45l-3.52,8.73,11.08,4.45a6.89,6.89,0,0,1,.45-3.24,6.81,6.81,0,0,1,12.63,5.08A6.61,6.61,0,0,1,103,71.11l11.07,4.46,3.51-8.71a6.62,6.62,0,0,1-3-.47,6.81,6.81,0,1,1,7.6-10.85L125.6,47l-11.08-4.46A6.81,6.81,0,1,1,103.36,38L92.28,33.57,88.77,42.3A6.81,6.81,0,1,0,81,53Z"/><path class="cls-6" d="M70.5,102.75a6.75,6.75,0,0,0,3.2-.8v9.41H85.6a6.81,6.81,0,1,1,12.12,0h11.9V102a6.81,6.81,0,1,0,0-12v-9.4H97.68a6.81,6.81,0,1,0-12,0H73.7v9.41a6.81,6.81,0,1,0-3.2,12.81Z"/></svg>