<svg id="Layer_1" data-name="Layer 1" xmlns="http://www.w3.org/2000/svg" viewBox="0 0 150 150"><defs><style>.cls-1{fill:#665a8c;}.cls-2{fill:#554a71;}.cls-3{fill:#e3a14f;}.cls-4{fill:#fec35a;}.cls-5{fill:#f3716d;}.cls-6{fill:#17738a;}</style></defs><title>UI_Icons_v1</title><circle class="cls-1" cx="75" cy="75.57" r="72.36" transform="translate(-20.05 27.6) rotate(-18.43)"/><path class="cls-2" d="M84.74,147.27a72.37,72.37,0,0,0,62.62-71.7c0-1.29,0-2.56-.1-3.83l-36.5-36.5L86.43,43.18,75,31.75l-31,74.8Z"/><path class="cls-3" d="M75,75.57V31.75a43.82,43.82,0,1,0,38,21.91Z"/><path class="cls-4" d="M75,75.57V40.08a35.47,35.47,0,1,0,30.74,17.74Z"/><path class="cls-3" d="M117.83,44.42A43.78,43.78,0,0,0,79.88,22.51h0V66.33Z"/><path class="cls-4" d="M110.62,48.58A35.45,35.45,0,0,0,79.88,30.84h0V66.33Z"/><path class="cls-5" d="M93.37,41.82a5.5,5.5,0,1,1-5.5-5.5A5.49,5.49,0,0,1,93.37,41.82Z"/><path class="cls-5" d="M96.08,53a5.5,5.5,0,1,1-5.5-5.49A5.5,5.5,0,0,1,96.08,53Z"/><path class="cls-5" d="M107,71.54a5.5,5.5,0,1,1-5.5-5.49A5.49,5.49,0,0,1,107,71.54Z"/><path class="cls-5" d="M93.74,75.9a5.49,5.49,0,1,1-5.49-5.49A5.49,5.49,0,0,1,93.74,75.9Z"/><path class="cls-5" d="M98.55,94.39a5.49,5.49,0,1,1-5.49-5.49A5.49,5.49,0,0,1,98.55,94.39Z"/><path class="cls-5" d="M80.89,104.48A5.5,5.5,0,1,1,75.4,99,5.49,5.49,0,0,1,80.89,104.48Z"/><path class="cls-5" d="M86.29,87.12a5.49,5.49,0,1,1-5.49-5.5A5.49,5.49,0,0,1,86.29,87.12Z"/><path class="cls-5" d="M64.62,94a5.49,5.49,0,1,1-5.49-5.49A5.49,5.49,0,0,1,64.62,94Z"/><path class="cls-5" d="M72.9,83.5A5.5,5.5,0,1,1,67.41,78,5.49,5.49,0,0,1,72.9,83.5Z"/><path class="cls-5" d="M54.09,82.6a5.5,5.5,0,1,1-5.49-5.49A5.49,5.49,0,0,1,54.09,82.6Z"/><path class="cls-5" d="M62.5,72.14A5.5,5.5,0,1,1,57,66.65,5.49,5.49,0,0,1,62.5,72.14Z"/><path class="cls-5" d="M57.63,58a5.5,5.5,0,1,1-5.5-5.49A5.5,5.5,0,0,1,57.63,58Z"/><path class="cls-5" d="M72.9,61.23a5.5,5.5,0,1,1-5.49-5.49A5.49,5.49,0,0,1,72.9,61.23Z"/><path class="cls-5" d="M74.71,47.84a5.5,5.5,0,1,1-5.5-5.5A5.49,5.49,0,0,1,74.71,47.84Z"/><path class="cls-6" d="M100.82,86.7a2.92,2.92,0,1,1,3.28-2.9A3.11,3.11,0,0,1,100.82,86.7Zm0-4.29a1.44,1.44,0,1,0,1.78,1.39A1.63,1.63,0,0,0,100.82,82.41Z"/><path class="cls-6" d="M82.67,100.46a3.28,3.28,0,0,1-3-2.18,3.46,3.46,0,0,1-.09-2.41,2.74,2.74,0,0,1,1.58-1.71,2.6,2.6,0,0,1,1-.18,3.29,3.29,0,0,1,2.94,2.18,3.46,3.46,0,0,1,.09,2.41,2.74,2.74,0,0,1-1.58,1.71A2.55,2.55,0,0,1,82.67,100.46Zm-.5-5a1.14,1.14,0,0,0-.41.07,1.26,1.26,0,0,0-.7.79,2,2,0,0,0,.06,1.38A1.81,1.81,0,0,0,82.67,99a1.1,1.1,0,0,0,.4-.08,1.26,1.26,0,0,0,.7-.79,2,2,0,0,0-.06-1.38A1.8,1.8,0,0,0,82.17,95.49Z"/><path class="cls-6" d="M69.39,97.65a2.45,2.45,0,0,1-.85-.14,3.11,3.11,0,0,1-1.67-4.05,3.24,3.24,0,0,1,3-2.31,2.7,2.7,0,0,1,.85.14,3.12,3.12,0,0,1,1.67,4.06A3.24,3.24,0,0,1,69.39,97.65Zm.44-5A1.78,1.78,0,0,0,68.29,94,1.62,1.62,0,0,0,69,96.09a1,1,0,0,0,.36.06,1.78,1.78,0,0,0,1.54-1.29,1.62,1.62,0,0,0-.74-2.14A1,1,0,0,0,69.83,92.66Z"/><path class="cls-6" d="M62.18,107.29a2.92,2.92,0,1,1,3.29-2.9A3.12,3.12,0,0,1,62.18,107.29Zm0-4.29A1.44,1.44,0,1,0,64,104.39,1.62,1.62,0,0,0,62.18,103Z"/><path class="cls-6" d="M49.07,95.32a2.86,2.86,0,0,1-2.7-1.63,2.7,2.7,0,0,1,.08-2.32A3.52,3.52,0,0,1,48.2,89.7a3.81,3.81,0,0,1,1.48-.31A2.88,2.88,0,0,1,52.39,91a3.14,3.14,0,0,1-1.84,4A3.81,3.81,0,0,1,49.07,95.32Zm.61-4.43a2.24,2.24,0,0,0-.87.19,2.06,2.06,0,0,0-1,.94,1.28,1.28,0,0,0,0,1.06,1.39,1.39,0,0,0,1.32.74,2.24,2.24,0,0,0,.87-.19,1.63,1.63,0,0,0,1.07-2A1.4,1.4,0,0,0,49.68,90.89Z"/><path class="cls-6" d="M68.59,75.53a2.92,2.92,0,1,1,3.28-2.9A3.11,3.11,0,0,1,68.59,75.53Zm0-4.29a1.44,1.44,0,1,0,1.78,1.39A1.63,1.63,0,0,0,68.59,71.24Z"/><path class="cls-6" d="M46.31,70.92A2.92,2.92,0,1,1,49.59,68,3.11,3.11,0,0,1,46.31,70.92Zm0-4.29A1.44,1.44,0,1,0,48.09,68,1.63,1.63,0,0,0,46.31,66.63Z"/><path class="cls-6" d="M59.89,56.66A3.28,3.28,0,0,1,57,54.59a3.11,3.11,0,0,1,1.33-4.17,2.54,2.54,0,0,1,1.05-.22,3.29,3.29,0,0,1,2.93,2.06,3.12,3.12,0,0,1-1.34,4.18A2.67,2.67,0,0,1,59.89,56.66Zm-.54-5a1.12,1.12,0,0,0-.44.09,1.63,1.63,0,0,0-.56,2.2,1.8,1.8,0,0,0,1.54,1.16,1.13,1.13,0,0,0,.45-.09,1.63,1.63,0,0,0,.56-2.19A1.82,1.82,0,0,0,59.35,51.7Z"/><path class="cls-6" d="M83.44,61.7a2.92,2.92,0,1,1,3.29-2.89A3.12,3.12,0,0,1,83.44,61.7Zm0-4.29a1.44,1.44,0,1,0,1.78,1.4A1.63,1.63,0,0,0,83.44,57.41Z"/><path class="cls-6" d="M100,49.32a2.73,2.73,0,0,1-2.13-1,2.68,2.68,0,0,1-.57-2.25,3.64,3.64,0,0,1,3.48-2.92,2.77,2.77,0,0,1,2.14,1,2.73,2.73,0,0,1,.56,2.26A3.62,3.62,0,0,1,100,49.32Zm.78-4.62a2,2,0,0,0-1.28.49,2.06,2.06,0,0,0-.72,1.18A1.18,1.18,0,0,0,100,47.82a2,2,0,0,0,1.28-.49,2,2,0,0,0,.72-1.19,1.17,1.17,0,0,0-1.22-1.44Z"/></svg>