<svg id="Layer_1" data-name="Layer 1" xmlns="http://www.w3.org/2000/svg" viewBox="0 0 150 150"><defs><style>.cls-1{fill:#eab542;}.cls-2{fill:#c68834;}.cls-3{fill:#c7cacc;}.cls-4{fill:#78838a;}.cls-5{fill:#d3d4d6;}.cls-6{fill:#fdfdfd;}.cls-7{fill:#cf4841;}.cls-8{fill:#a03631;}.cls-9{fill:#db7c6b;}</style></defs><title>UI_Icons_v1</title><circle class="cls-1" cx="75" cy="75" r="72.36" transform="translate(-19.87 27.57) rotate(-18.43)"/><path class="cls-2" d="M113.65,34.93a.71.71,0,0,0-.31-.31.77.77,0,0,0-.83-.38.78.78,0,0,0-.39.23l-.08.12-.06.1h0l-.07.14a1.39,1.39,0,0,1-.06.13l-.15.31-.19.41-.22.49c-.1.23-.2.49-.32.79l-.12.3c-.08.2-.16.42-.25.67a2.83,2.83,0,0,0-.11.31c-1,2.85-2.71,8.15-5.47,18.5,0-.09-15.48-15.39-15.47-15.25a3.15,3.15,0,0,1-.94,2.25c-.77.77-1.82,1.82-1.41,3.35A2.54,2.54,0,0,0,88,48.4c.1.11,2.72,3,2.64,3-.76.77-1.82,1.83-1.4,3.36a2.44,2.44,0,0,0,.82,1.3c.1.11,2.72,3,2.65,3-.77.77-1.82,1.83-1.41,3.36a2.44,2.44,0,0,0,.82,1.3c.1.11,2.72,2.73,2.83,2.82h0l-.19.2c-.77.77-1.82,1.83-1.41,3.36a2.48,2.48,0,0,0,.82,1.3c.1.11.83.85.94.94a3.11,3.11,0,0,0,.32.31,3.14,3.14,0,0,0,.31.32,14,14,0,0,1,.63.63,3,3,0,0,0,.31.31,3.11,3.11,0,0,0,.32.31h0l-.19.2-.2.2H94.4L64,44.35l0,0-.33-.3h0l-1.87-1.71-.06-.06-.12-.11s-.47-.66-1-.33a12.93,12.93,0,0,0-4.59,4.56,27.9,27.9,0,0,0-3.65,10.92L50.74,69c-.06-.06-12.94-13-13.06-13-3-2.22-5.25-2.57-6.22-2.59a1.51,1.51,0,0,0-.94.3l-2.47,1.87c-.57.42-.54,1.12-.49,1.83a28,28,0,0,0,4.22,9.95L43.17,82.44a10.41,10.41,0,0,0-.36,2.7v.18A10.41,10.41,0,0,0,46,92.85l51.06,51.06A72.39,72.39,0,0,0,147.36,75c0-2.27-.12-4.5-.32-6.72C141.5,62.75,113.77,35,113.65,34.93Z"/><path class="cls-3" d="M56.09,46.37a12.93,12.93,0,0,1,4.59-4.56c.53-.33,1,.33,1,.33l2,1.88-2.19,1.83,2,2-2.26,1.75,1.94,2.09-2.29,1.71,1.92,2.12-2.31,1.68,1.9,2.13-2.31,1.68L62,63.2l-2.32,1.66L61.56,67l-2.34,1.65,1.87,2.16-2.33,1.64,1.86,2.16-2.34,1.64,1.86,2.18-2.35,1.63,1.86,2.17L57.3,83.88l1.85,2.18L56.8,87.69l1.84,2.18-2.28,1.58c-.16,1.43-.26,2.25-.26,2.25l-8.72-1.52,5.06-34.89A27.9,27.9,0,0,1,56.09,46.37Z"/><path class="cls-4" d="M54.15,60.71H54a.52.52,0,0,1-.4-.61L55.52,51a.51.51,0,1,1,1,.2l-1.87,9.1A.52.52,0,0,1,54.15,60.71Z"/><path class="cls-5" d="M43.65,71h0a2.35,2.35,0,0,1-3.29-.46L34,62.05a.87.87,0,0,1,.17-1.23l3.52-2.65a1.39,1.39,0,0,0,0-2.23c-3-2.22-5.25-2.57-6.22-2.59a1.51,1.51,0,0,0-.94.3l-2.47,1.86c-.57.43-.54,1.13-.49,1.84a28,28,0,0,0,4.22,9.95L45.24,85.19l8.94-6.73s-2-5-9.31-14.94a1,1,0,0,0-1.33-.19l-.42.31a.94.94,0,0,0-.23,1.25,13.73,13.73,0,0,1,1.59,3.53A2.34,2.34,0,0,1,43.65,71Z"/><path class="cls-4" d="M38.74,72.63a.53.53,0,0,1-.41-.2l-6-8a.52.52,0,0,1,.1-.72.51.51,0,0,1,.72.11l6,8a.51.51,0,0,1-.1.72A.5.5,0,0,1,38.74,72.63Z"/><path class="cls-5" d="M98.9,80.93l9.55,2.33,7.42-30.5a20.67,20.67,0,0,0-.3-10.87l-2.16-7.13a.76.76,0,0,0-1.43-.07C111.33,36.14,109.07,39.12,98.9,80.93Z"/><path class="cls-6" d="M112,34.69a.76.76,0,0,1,1.43.07l1.08,3.56c-1.57,4.48-5.62,17-12.08,43.47l-3.51-.86C109.07,39.12,111.33,36.14,112,34.69Z"/><path class="cls-3" d="M99.8,80.8c-.1-.35-.54-.5-1.46-.75s-2.48-.66-2.9-2.2.65-2.58,1.42-3.35,1-1,.88-1.38-.54-.51-1.46-.75-2.48-.67-2.89-2.2.64-2.59,1.41-3.36,1-1,.88-1.38-.54-.5-1.46-.75-2.48-.67-2.89-2.2.64-2.59,1.41-3.36,1-1,.88-1.38-.54-.5-1.46-.75-2.49-.67-2.9-2.2.65-2.59,1.41-3.36,1-1,.89-1.38-.54-.51-1.46-.75-2.49-.67-2.9-2.21.64-2.58,1.41-3.35a3.15,3.15,0,0,0,.94-2.25.13.13,0,0,1,.24-.08c.53.8,1.45,2.59.27,3.77-.67.68-1,1-.88,1.38s.54.51,1.45.76c1.06.28,2.49.67,2.9,2.2s-.64,2.59-1.41,3.36-1,1-.88,1.38.54.51,1.46.75,2.48.67,2.89,2.2S95,59.8,94.18,60.57s-1,1-.88,1.38.54.51,1.46.75,2.49.67,2.9,2.2-.65,2.59-1.42,3.36-1,1-.88,1.38.54.5,1.46.75,2.49.67,2.9,2.2S99.07,75.18,98.3,76s-1,1-.88,1.37.54.51,1.46.76,2.48.66,2.89,2.19Z"/><rect class="cls-7" x="42.81" y="74.7" width="67.51" height="21.07" rx="10.44"/><path class="cls-8" d="M104.4,91.14H48.72a5.9,5.9,0,0,1-5.91-5.91v.09A10.43,10.43,0,0,0,53.25,95.76H99.87a10.43,10.43,0,0,0,10.44-10.44v-.09A5.9,5.9,0,0,1,104.4,91.14Z"/><path class="cls-9" d="M99.87,76.11H53.25c-5.77,0-10.44,4-10.44,9v.08c0-2.83,2.64-5.12,5.91-5.12H104.4c3.27,0,5.91,2.29,5.91,5.12v-.08C110.31,80.16,105.64,76.11,99.87,76.11Z"/><path class="cls-3" d="M54.84,85.23a2.66,2.66,0,1,1-2.65-2.66A2.65,2.65,0,0,1,54.84,85.23Z"/><path class="cls-3" d="M103.59,85.23a2.66,2.66,0,1,1-2.66-2.66A2.66,2.66,0,0,1,103.59,85.23Z"/><path class="cls-4" d="M111.92,61a.27.27,0,0,1-.13,0,.51.51,0,0,1-.37-.62l2.13-8.49a.51.51,0,0,1,.62-.37.5.5,0,0,1,.37.62l-2.13,8.49A.51.51,0,0,1,111.92,61Z"/></svg>