<svg id="Layer_1" data-name="Layer 1" xmlns="http://www.w3.org/2000/svg" viewBox="0 0 150 150"><defs><style>.cls-1{fill:#48bd9f;}.cls-2{fill:#318f78;}.cls-3{fill:#132f35;}.cls-4{fill:#a03631;}.cls-5{fill:#31545c;}.cls-6{fill:#fff;}.cls-7{fill:#cf4841;}.cls-8{fill:#c7cacc;}</style></defs><title>UI_Icons_v1</title><path class="cls-1" d="M147.55,75A72.6,72.6,0,1,1,75,2.4,72.61,72.61,0,0,1,147.55,75Z"/><path class="cls-2" d="M146.78,80.46l-22.7-22.7S117.79,55.4,100,56.2c-14.45.64-23.92,6.69-28,6.69s-13.51-6-28-6.69c-17.83-.8-24.12,1.56-24.12,1.56v5.86c.14.06,3.13,3.1,3.15,3.12,1.82,3.64,2.05,9.49,5.65,14.89a11.7,11.7,0,0,0,1.64,1.9c-4.24,3.82-7.94,7.5-7.43,7.94.05,0,29.16,29,56.34,56.13C114.69,143.38,144.2,116.35,146.78,80.46Z"/><path class="cls-3" d="M103.13,74.82c-1.23-.8-10.17-2.76-21.59-5,12.92-2,27.09-3.9,38.8-4.74,2.4-.17-1.58-5.59-1.58-5.59S93.71,63.83,72,68c-21.72-4.14-46.77-8.49-46.77-8.49s-4,5.42-1.57,5.59c11.71.84,25.88,2.72,38.8,4.74C51,72.06,42.1,74,40.87,74.82,37.14,77.26,21.93,90.6,22.93,91.47s5.74,2,7,.14,9.89-13.34,14.91-14.92c2.4-.75,13.32-3,27.12-5.32,13.8,2.34,24.72,4.57,27.11,5.32,5,1.58,13.63,13,14.92,14.92s6,.72,7-.14S106.86,77.26,103.13,74.82Z"/><path class="cls-4" d="M31,83c-4.5,4-8.6,8.06-8.07,8.52,1,.86,5.74,2,7,.14A90.11,90.11,0,0,1,36.06,84Z"/><path class="cls-4" d="M112.44,82.46l-4.91,1.1a92.36,92.36,0,0,1,6.5,8c1.29,1.86,6,.72,7-.14C121.62,91,117.15,86.64,112.44,82.46Z"/><path class="cls-5" d="M101,58.31,87.23,60.7,72.47,64.76,62.21,61.4,35.43,58.05,26.5,61.4a42.2,42.2,0,0,0,1.15,14.5c2,8.31,13.26,12.73,21.84,11.94s13.7-8.49,15.56-12.2,4.24-8.49,4.24-8.49l7.25.18S78.75,74.22,81.13,80s13.09,8.4,22.81,6.81S117.73,74,118.71,69.63s-3.19-10.08-3.19-10.08Z"/><path class="cls-3" d="M115.82,60c-6.74,1.18-24,4.24-40.31,7.31l1,0s.7,2.19,1.74,5.13C89,74.37,97.1,76.05,99.11,76.69c2.76.86,6.58,4.7,9.69,8.3a16.46,16.46,0,0,0,3.39-2.75,111.5,111.5,0,0,0-9.06-7.42c-1.23-.8-10.17-2.76-21.59-5,12.21-1.91,25.5-3.68,36.81-4.58A21.6,21.6,0,0,0,115.82,60Z"/><path class="cls-3" d="M26.5,61.4a30.7,30.7,0,0,0-.19,3.88c11.17.92,24.18,2.66,36.15,4.53C51,72.06,42.1,74,40.87,74.82a115.25,115.25,0,0,0-9.17,7.51,18.83,18.83,0,0,0,3.62,2.52c3.09-3.56,6.85-7.31,9.56-8.16C47,76,55.48,74.27,66.72,72.28l2.43-4.85c-15.44-2.92-31.91-5.84-39.55-7.19Z"/><path class="cls-6" d="M55.85,83.71c-5.71,2.66-19.54,2.1-24.38-4.12A21.4,21.4,0,0,1,27.2,68a21.27,21.27,0,0,0,4.27,13.87C36.31,88.1,50.14,88.66,55.85,86s9.65-10.59,9.09-15.91C64.41,75.17,60.82,81.39,55.85,83.71Z"/><path class="cls-6" d="M112.53,79.59c-4.84,6.22-18.67,6.78-24.38,4.12-5-2.32-8.56-8.54-9.09-13.62C78.5,75.41,82.39,83.32,88.15,86s19.54,2.1,24.38-4.11A21.27,21.27,0,0,0,116.8,68,21.4,21.4,0,0,1,112.53,79.59Z"/><path class="cls-7" d="M100,56.2c-14.45.64-23.92,6.69-28,6.69s-13.51-6-28-6.69c-17.83-.8-24.12,1.56-24.12,1.56v5.86c5.33,2.1,3.8,10.5,8.8,18s20,9.44,28,5.65S67.32,72.83,68.13,71.05,72,69.19,72,69.19s3.07.08,3.88,1.86,3.39,12.43,11.38,16.23,23,1.86,28-5.65,3.47-15.91,8.8-18V57.76S117.79,55.4,100,56.2ZM55.85,84.86c-5.71,2.66-19.54,2.1-24.38-4.12s-5.2-15.12-3.07-18.09c3.87-5.41,29.69-3.5,35.2,2.83C67.4,69.84,63.09,81.49,55.85,84.86ZM115.6,62.65c2.13,3,1.78,11.87-3.07,18.09s-18.67,6.78-24.38,4.12c-7.24-3.37-11.55-15-7.75-19.38C85.91,59.15,111.72,57.24,115.6,62.65Z"/><path class="cls-6" d="M120.49,59.47c-.93,0-1.68.48-1.68,1.07s.75,1.08,1.68,1.08,1.68-.48,1.68-1.08S121.41,59.47,120.49,59.47Z"/><path class="cls-6" d="M23.51,59.47c-.92,0-1.67.48-1.67,1.07s.75,1.08,1.67,1.08,1.68-.48,1.68-1.08S24.44,59.47,23.51,59.47Z"/><path class="cls-8" d="M29.77,69.76a8.48,8.48,0,0,0,1.09,4.16,15.56,15.56,0,0,1,8-12.86H38.7A8.82,8.82,0,0,0,29.77,69.76Z"/><path class="cls-8" d="M82.37,70.47a8.54,8.54,0,0,0,1.09,4.16,15.55,15.55,0,0,1,8-12.86H91.3A8.82,8.82,0,0,0,82.37,70.47Z"/></svg>