<svg id="Layer_1" data-name="Layer 1" xmlns="http://www.w3.org/2000/svg" viewBox="0 0 150 150"><defs><style>.cls-1{fill:#48bd9f;}.cls-2{fill:#318f78;}.cls-3{fill:#63c29d;}.cls-4{fill:#2d9577;}.cls-5{fill:#ce1141;}.cls-6{fill:#ea174b;}.cls-7{fill:#ee5a63;}.cls-8{fill:#62888b;}.cls-9{fill:#317072;}.cls-10{fill:#8fa6aa;}.cls-11{fill:#005c5d;}</style></defs><title>UI_Icons_v1</title><circle class="cls-1" cx="75" cy="75" r="72.36" transform="translate(-16.74 128.24) rotate(-75.13)"/><path class="cls-2" d="M145.66,90.58l-63-63a2.19,2.19,0,0,0-1-.71,2.56,2.56,0,0,0-1.36.44l-.89-.89c-1.22-1.22-2.3-2-2.89-2s-2.17,1.1-3.72,2.85a2.41,2.41,0,0,0-1.41-.43c-1.76.29-6.86,9.42-5.51,16.65a7.56,7.56,0,0,0,2.25,4.13L75,54.53v5.8L58.15,43.47a91.77,91.77,0,0,0,6.93,28.39q1.1,2.53,2.3,4.76H54.75a2.23,2.23,0,0,0-2.22,2.47l.89,8.45a1.48,1.48,0,0,0,.61,1c.09.11,3,3,3.07,3.09l2.73,26.65,28,27.88A72.42,72.42,0,0,0,145.66,90.58Z"/><path class="cls-3" d="M87.9,71.54C84.41,80.48,79.53,87,77,86.16s-1.77-8.8,1.71-17.74A96.34,96.34,0,0,1,93.85,43,91.45,91.45,0,0,1,87.9,71.54Z"/><path class="cls-4" d="M87.9,71.54C84.41,80.48,79.53,87,77,86.16L93.85,43A91.45,91.45,0,0,1,87.9,71.54Z"/><path class="cls-4" d="M65.08,71.86C68.88,80.69,74,87.09,76.5,86.15S78,77.29,74.17,68.46a96.59,96.59,0,0,0-16-25A91.77,91.77,0,0,0,65.08,71.86Z"/><path class="cls-3" d="M65.08,71.86C68.88,80.69,74,87.09,76.5,86.15L58.15,43.47A91.77,91.77,0,0,0,65.08,71.86Z"/><path class="cls-4" d="M76.48,85.52A1.47,1.47,0,0,1,75,84.05V38.82a1.48,1.48,0,1,1,2.95,0V84.05A1.47,1.47,0,0,1,76.48,85.52Z"/><path class="cls-3" d="M76.47,37.35A1.46,1.46,0,0,0,75,38.82V84.05a1.47,1.47,0,0,0,1.46,1.47Z"/><path class="cls-5" d="M67.09,39.9c0-7.33,7.42-15.5,9.39-15.5s9.39,8.17,9.39,15.5c0,4.62-4.2,8.37-9.39,8.37S67.09,44.52,67.09,39.9Z"/><path class="cls-6" d="M87.12,43.47c1.36-7.23-3.74-16.36-5.5-16.65S71.74,33.47,70.38,40.7c-.85,4.55,2.13,9.62,6.83,9.62C82.15,50.32,86.27,48,87.12,43.47Z"/><path class="cls-7" d="M65.84,43.47c-1.35-7.23,3.75-16.36,5.51-16.65s8,5.27,10.08,12.79c1.22,4.48-.79,10.71-5.67,10.71C71.07,50.32,66.7,48,65.84,43.47Z"/><polygon class="cls-8" points="92.17 118.32 59.83 118.32 55.95 80.5 96.05 80.5 92.17 118.32"/><polygon class="cls-9" points="84.8 80.5 83.1 118.32 92.17 118.32 96.05 80.5 84.8 80.5"/><polygon class="cls-10" points="60.18 80.5 63.24 118.32 70.27 118.32 68.9 80.5 60.18 80.5"/><polygon class="cls-9" points="57.08 91.47 94.92 91.47 96.05 80.5 55.95 80.5 57.08 91.47"/><polygon class="cls-8" points="69.3 91.47 68.9 80.5 60.18 80.5 61.07 91.47 69.3 91.47"/><polygon class="cls-11" points="94.92 91.47 96.05 80.5 84.8 80.5 84.31 91.47 94.92 91.47"/><path class="cls-8" d="M97.08,88.89H54.92a1.51,1.51,0,0,1-1.5-1.35l-.89-8.45a2.23,2.23,0,0,1,2.22-2.47h42.5a2.23,2.23,0,0,1,2.22,2.47l-.89,8.45A1.51,1.51,0,0,1,97.08,88.89Z"/><path class="cls-9" d="M86.42,88.89H97.08a1.51,1.51,0,0,0,1.5-1.35l.89-8.45a2.23,2.23,0,0,0-2.22-2.47H87Z"/><polygon class="cls-10" points="59.11 88.89 66.87 88.89 66.27 76.62 57.96 76.62 59.11 88.89"/></svg>