<svg id="Layer_1" data-name="Layer 1" xmlns="http://www.w3.org/2000/svg" viewBox="0 0 150 150"><defs><style>.cls-1{fill:#3996d3;}.cls-2{fill:#010101;opacity:0.3;}.cls-3{fill:#f99e1c;}.cls-4{fill:#ee8c22;}.cls-5{fill:#fcb130;}</style></defs><title>UI_Icons_v1</title><circle class="cls-1" cx="75" cy="75" r="72.36" transform="translate(-16.74 128.24) rotate(-75.13)"/><path class="cls-2" d="M125.1,48.81l-5.61.15L117,46.45h0l-2.51-2.5s0,0,0,0l-.2-.21,0,0-.91-.69-.11-.09h0l-8.66,0h0l-6.16,0h0l-3.58,0-.83-1.09v0l-.14-.19h0L93,40.57h0l-1-1.29v0l-1.12-1.47-.91.88h0L88.1,40.56h0l-4.44,4.36h0L80.5,48,77.6,49.2h0L75.47,50h0L64.68,54.36h0l-7.36,3h0l-1.49.59h0l-3.47,1.4h0L44.62,62.4l-.4,1.09h0l-1.8,5.18h0l-.71,2h0L34.8,90.5l-9.4,11.76h0l22,22,23.56,23.56c1.35.07,2.71.12,4.08.12a72.36,72.36,0,0,0,72.36-72.36c0-1.59-.07-3.16-.17-4.72l-22-22Z"/><polygon class="cls-3" points="66.87 115.45 25.4 102.27 25.4 65.56 66.87 78.74 66.87 115.45"/><polygon class="cls-4" points="66.87 115.45 125.14 85.5 125.14 48.79 66.87 78.74 66.87 115.45"/><polygon class="cls-5" points="25.4 65.56 83.82 36.88 125.14 48.8 66.87 78.74 25.4 65.56"/><path class="cls-4" d="M115,45.14H96.35v6.43c1.52,4.57,16.91,4.66,18.68,0Z"/><path class="cls-3" d="M115,45.37c0,2.3-4.18,4.16-9.34,4.16s-9.34-1.86-9.34-4.16,4.18-4.16,9.34-4.16S115,43.08,115,45.37Z"/><path class="cls-4" d="M93.88,40.56H75.2V47c1.52,4.57,16.91,4.65,18.68,0Z"/><path class="cls-3" d="M93.88,40.8c0,2.3-4.18,4.16-9.34,4.16S75.2,43.1,75.2,40.8s4.18-4.16,9.34-4.16S93.88,38.5,93.88,40.8Z"/><path class="cls-4" d="M96.61,54.6H77.93V61c1.53,4.57,16.91,4.66,18.68,0Z"/><path class="cls-3" d="M96.61,54.83c0,2.3-4.18,4.16-9.34,4.16s-9.34-1.86-9.34-4.16,4.19-4.15,9.34-4.15S96.61,52.54,96.61,54.83Z"/><path class="cls-4" d="M75.47,50H56.79v6.44c1.52,4.57,16.91,4.66,18.68,0Z"/><path class="cls-3" d="M75.47,50.26c0,2.3-4.18,4.16-9.34,4.16s-9.34-1.86-9.34-4.16S61,46.1,66.13,46.1,75.47,48,75.47,50.26Z"/><path class="cls-4" d="M77.69,63.89H59v6.43c1.52,4.57,16.91,4.66,18.68,0Z"/><path class="cls-3" d="M77.69,64.13c0,2.29-4.18,4.16-9.34,4.16S59,66.42,59,64.13,63.19,60,68.35,60,77.69,61.83,77.69,64.13Z"/><path class="cls-4" d="M56.55,59.32H37.87v6.43c1.52,4.57,16.91,4.66,18.68,0Z"/><path class="cls-3" d="M56.55,59.55c0,2.3-4.19,4.16-9.34,4.16s-9.34-1.86-9.34-4.16,4.18-4.16,9.34-4.16S56.55,57.26,56.55,59.55Z"/></svg>