<svg id="Layer_1" data-name="Layer 1" xmlns="http://www.w3.org/2000/svg" viewBox="0 0 150 150"><defs><style>.cls-1{fill:#78cdd1;}.cls-2{fill:#22adb1;}.cls-3{fill:#fec35a;}.cls-4{fill:#17738a;}.cls-5{fill:#f3716d;}.cls-6{fill:#143a46;}.cls-7{fill:#fff;}</style></defs><title>UI_Icons_v1</title><circle class="cls-1" cx="74.76" cy="74.4" r="71.19" transform="translate(-23.16 35.2) rotate(-23.05)"/><path class="cls-2" d="M54.45,119.07l26.28,26.27A71.2,71.2,0,0,0,145.43,83L84.35,21.94,83.09,25,79.15,21.1l-8.48,4.6-3.76-3.76-1.74,4.5,1.45,1.45-1.45,4.38L66.88,34l-1.71,4.11L75.88,48.81,73.26,60.06Z"/><path class="cls-3" d="M90.08,87.09c0,5.57,10.31,9,9.67,20.54s-8.78,17.48-25,17.48-24.35-5.89-25-17.48,9.68-15,9.68-20.54c0-7.82-4.43-6.61-3.67-15.27.49-5.49,4.57-12.62,19-12.62s18.5,7.13,19,12.62C94.5,80.48,90.08,79.27,90.08,87.09Z"/><rect class="cls-4" x="71.24" y="38.59" width="7.05" height="56.59"/><path class="cls-5" d="M84.61,87.71a9.85,9.85,0,1,1-9.85-9.85A9.84,9.84,0,0,1,84.61,87.71Z"/><path class="cls-6" d="M82.24,87.71a7.48,7.48,0,1,1-7.48-7.48A7.48,7.48,0,0,1,82.24,87.71Z"/><path class="cls-4" d="M81,35.85a2.74,2.74,0,0,1-2.74,2.74H71.24a2.73,2.73,0,0,1-2.74-2.74l1.22-13.18a2.2,2.2,0,0,1,2.2-2.21H77.6a2.21,2.21,0,0,1,2.21,2.21Z"/><path class="cls-7" d="M84.71,37.23a1.23,1.23,0,0,1-1.23,1.23h0a1.23,1.23,0,0,1-1.23-1.23V34.47a1.23,1.23,0,0,1,1.23-1.23h0a1.23,1.23,0,0,1,1.23,1.23Z"/><path class="cls-7" d="M84.71,31.4a1.23,1.23,0,0,1-1.23,1.23h0a1.23,1.23,0,0,1-1.23-1.23V28.64a1.23,1.23,0,0,1,1.23-1.23h0a1.23,1.23,0,0,1,1.23,1.23Z"/><path class="cls-7" d="M84.71,25.57a1.23,1.23,0,0,1-1.23,1.23h0a1.23,1.23,0,0,1-1.23-1.23V22.81a1.23,1.23,0,0,1,1.23-1.23h0a1.23,1.23,0,0,1,1.23,1.23Z"/><path class="cls-7" d="M64.81,37.23A1.23,1.23,0,0,0,66,38.46h0a1.23,1.23,0,0,0,1.23-1.23V34.47A1.23,1.23,0,0,0,66,33.24h0a1.23,1.23,0,0,0-1.23,1.23Z"/><path class="cls-7" d="M64.81,31.4A1.23,1.23,0,0,0,66,32.63h0a1.23,1.23,0,0,0,1.23-1.23V28.64A1.23,1.23,0,0,0,66,27.41h0a1.23,1.23,0,0,0-1.23,1.23Z"/><path class="cls-7" d="M64.81,25.57A1.23,1.23,0,0,0,66,26.8h0a1.23,1.23,0,0,0,1.23-1.23V22.81A1.23,1.23,0,0,0,66,21.58h0a1.23,1.23,0,0,0-1.23,1.23Z"/><path class="cls-4" d="M83.94,108.67a1.4,1.4,0,0,1-1.4,1.39H67a1.39,1.39,0,0,1-1.39-1.39h0a1.39,1.39,0,0,1,1.39-1.4H82.54a1.4,1.4,0,0,1,1.4,1.4Z"/></svg>