<svg id="Layer_1" data-name="Layer 1" xmlns="http://www.w3.org/2000/svg" viewBox="0 0 150 150"><defs><style>.cls-1{fill:#f7976e;}.cls-2{fill:#d87756;}.cls-3{fill:#f09c57;}.cls-4{fill:#1a0d11;}.cls-5{fill:#fab172;}.cls-6{fill:#bd2025;}</style></defs><title>UI_Icons_v1</title><path class="cls-1" d="M147.6,75A72.6,72.6,0,1,1,75,2.4,72.61,72.61,0,0,1,147.6,75Z"/><path class="cls-2" d="M147.43,79.73,104.45,26,97.83,36.63l-8.22,1.62-10,10.8L77.22,64.61,65.56,78.33,66.83,106,39,115.42,68.61,147.3c2.11.18,4.24.3,6.39.3A72.6,72.6,0,0,0,147.43,79.73Z"/><path class="cls-3" d="M78.3,70.88a29.73,29.73,0,0,0,1,5.63A13.3,13.3,0,0,0,76,76.25c-1.42.13-3.29-.35-4.44.6a3.26,3.26,0,0,0-1.23,2.28,2.37,2.37,0,0,0,1.6,3.1c1.53.67,0-1.06-.28-1.55s.7-1.43.57-2.07c0,0,6.91,1.71,8.55,1.59s2.53-1,2.1-4.21a34.06,34.06,0,0,1-.42-5.28c0-.91.12-3.4-.87-4.13S78.3,70.88,78.3,70.88Z"/><path class="cls-4" d="M103.73,121.14a11.62,11.62,0,0,0,4.06.6c2.6,0,1-2.11-.38-2.49a4.84,4.84,0,0,1-3-2.11,5.63,5.63,0,0,1-.65-2.55c-.14-.84-1.34-1.6-3.72-1.16Z"/><path class="cls-5" d="M92.57,113.94c2,1.49,10.08,6.66,10.89,7.1s1.89-.17.86-1.79-2.19-1.73-2.71-3.52c-.3-1-.24-2.43-1.25-2.36A2.81,2.81,0,0,1,99,113.3a9.43,9.43,0,0,1-2.57-1.63C95.55,110.86,92.57,113.94,92.57,113.94Z"/><path class="cls-4" d="M103.31,113.89s1-.07,1,.21.65,2.36.65,2.36l-.89.51Z"/><path class="cls-4" d="M99.66,118.67l.58.37a6.29,6.29,0,0,0,1.73-2.46,4,4,0,0,1-.36-.85l0-.13A5.54,5.54,0,0,1,99.66,118.67Z"/><path class="cls-5" d="M93,58.06a3.74,3.74,0,0,0-2-1.67c-.86-.29-.94-.23-1.26-.15-.53.13-.85-.46-1.1-.78-.38-.51-.64-1.08-1.07-.54s-.7.33-.84.08-.44,0-.54.1-.22-.39-.46-.23-.27.42-.46.39-.87-.4-1.21-.11-.33,1.28-.41,1.78a1.91,1.91,0,0,1-.66,1.38c-1.62,1.22-3.14,1.82-1.12,4.13.64.73,2.72.22,2.79.17s5.35-2.52,5.35-2.52Z"/><path class="cls-5" d="M89.41,55.56s-.2.7.2,1l-.4-.14A1.44,1.44,0,0,1,89.41,55.56Z"/><path class="cls-5" d="M82.89,65.57s-1.16.37-1.36,1-.57,3-2,4.23-1.29,1.58-4.25,3-5.62,5-5,7.24l-3.45-8.33,2.11-10.31a26.52,26.52,0,0,1,3.37-.45c2.32-.2,7-.79,9.56-2.87s9.69-1.39,9.69-1.39l.93,2.92s-4.67,6.3-4.67,6.13S82.89,65.57,82.89,65.57Z"/><path class="cls-4" d="M92.7,57.66c.73.2,2.43,2.47,2.07,5.26S93.19,67,89.41,67.85a6,6,0,0,1-3.62,0c-1.58-.65-3.27-2.17-2.64-3.17a5.71,5.71,0,0,1,3.13-1.89,1.11,1.11,0,0,0,1.14.29A1,1,0,0,0,88,61.76c-.17-.24-.43-.57-.43-.57s.62-.73,1.09-.73,1.25.25,1.53-.25a5.87,5.87,0,0,1,1.38-1.74A6.52,6.52,0,0,1,92.7,57.66Z"/><path class="cls-4" d="M93.5,65.62a2.87,2.87,0,1,1-3.89-.4A2.76,2.76,0,0,1,93.5,65.62Z"/><path class="cls-6" d="M110,43.25A14.11,14.11,0,0,0,104.45,26L94.22,37l-.15,15A14.1,14.1,0,0,0,110,43.25Z"/><path class="cls-4" d="M103.41,40.64a8.22,8.22,0,0,0-3.21-10.08l-6,6.41-.09,8.76A8.25,8.25,0,0,0,103.41,40.64Z"/><path class="cls-6" d="M110,43.25,110,43,94.22,37l15.64,6.49Z"/><path class="cls-6" d="M111,39.08,94.22,37l16.69,2.57C110.93,39.38,111,39.23,111,39.08Z"/><path class="cls-6" d="M110.7,35,94.22,37l16.57-1.55A3.73,3.73,0,0,0,110.7,35Z"/><path class="cls-6" d="M109.19,31,94.22,37l15.19-5.51C109.34,31.32,109.27,31.18,109.19,31Z"/><path class="cls-6" d="M106.56,27.69,94.22,37,106.91,28Z"/><path class="cls-6" d="M108.08,46.61,94.22,37,107.8,47C107.9,46.86,108,46.74,108.08,46.61Z"/><path class="cls-6" d="M105.16,49.51,94.22,37l10.56,12.81Z"/><path class="cls-6" d="M101.43,51.43,94.22,37,101,51.58Z"/><path class="cls-6" d="M97.25,52.18,94.22,37l2.55,15.22Z"/><path class="cls-4" d="M99.32,107.93c-2-.89-4.79-2.84-4.55-3.57s0-.49-1.3-.65-5.69-3.66-5.69-4.06-2.52-.41-3.65-1.14a16.28,16.28,0,0,0-2.28-1.38c-1.54-.81-3-2.14-5.52-4.74s-1.24-6.33-2.27-8.23-3.79-2.76-3.88-3.84h0v0c0-2.23,2.32-5.26,5.07-6.52a9.88,9.88,0,0,0,3.19-2,3.08,3.08,0,0,0-.82-1.15c-.74-.6-4.76-2.65-5.68-3.73s0-4.65-.59-4.88A5.75,5.75,0,0,0,64.2,65.7c-.73,1.79-3.38,8.53-4,12a26.85,26.85,0,0,0-.16,7.62c.16,2.28-2.36,4.06-5,5.53s-4.14,1.86-4.87,2.35-2.44,4.3-3.57,5.2-2.28,1.38-2,1.95,1.22,1.05,1,1.14-1.79,3.57-2.6,4.87-2.19,1.87-1.3,2.19a.78.78,0,0,1,.57,1.06s-1.71,1.54-1.79,2.19-.69,1-1.35,1.79,2.49,4.3,4.52,4.38,1,1.14,3.9,2.12,3.41-.25,5.36,1,2.52.08,3.9-.24,1.46-1,4.71.08,2.11,1.22,4.79.89,2.35.08,5.93.41,2.6-.41,4.14-.73,2,1,4.06,0a11.49,11.49,0,0,1,5.51-1c1.76,0,2,.33,3.83-.89s3.41-3.49,6.17-5.12,2.28-1.14,2.69-2.35,2-1.3,2.76-2.6S101.27,108.83,99.32,107.93Z"/><path class="cls-3" d="M75,61.59c-.39,1.15-.7,2-.7,2s6,2.6,6,.54a31.34,31.34,0,0,1,.5-4.35C79.05,61,77.13,61.25,75,61.59Z"/><path class="cls-5" d="M73.65,63.59a53,53,0,0,0,2.11-7.05c.41-2.46,1.79-6.44,1.79-7.74s.82-2.68,3.26-4.79S88.6,37,89.2,36.62s3.58-1,4.8-1.41,3.94-2.7,3.83-1.84-2.06,2.49-2.28,2.82-3.06,1.89.76,1.84c.87,0,.43,1.08-.65,1.08s-1.19.33-2.17.65-1.09-.32-2.28-.21-4.43,4.33-5.95,6.6-2.48,2.17-3,3.25-1.43,7.46-1.42,9.37-1.12,3.3-1.15,5.36S73.65,63.59,73.65,63.59Z"/><path class="cls-3" d="M83.65,56.08c0,.32-.06.63-.1.85a1.91,1.91,0,0,1-.66,1.38l-.07,0a7.52,7.52,0,0,1,.76,1.77,2.64,2.64,0,0,0,1.76,2C83.3,61.22,83.54,57,83.65,56.08Z"/><path class="cls-3" d="M73,65.13a14,14,0,0,0,1.28-3.43h0l-.54.07A14.53,14.53,0,0,1,73,65.13Z"/><path class="cls-6" d="M70.2,80.82l.13-.1a.86.86,0,0,1-.15-.4h0v0c0-2.23,2.32-5.26,5.07-6.52a9.88,9.88,0,0,0,3.19-2,3.08,3.08,0,0,0-.82-1.15c-.74-.6-4.76-2.65-5.68-3.73s0-4.65-.59-4.88A5.75,5.75,0,0,0,64.2,65.7c-.73,1.79-3.38,8.53-4,12a24.07,24.07,0,0,0-.35,4.65S65.7,84.32,70.2,80.82Z"/></svg>