<svg xmlns="http://www.w3.org/2000/svg" xmlns:xlink="http://www.w3.org/1999/xlink" viewBox="0 0 150 150"><defs><style>.cls-1{fill:none;}.cls-2{isolation:isolate;}.cls-3{fill:#febd23;}.cls-4{fill:#e2a126;}.cls-5{fill:#4a4d55;}.cls-6{fill:#efefef;}.cls-7{clip-path:url(#clip-path);}.cls-8{fill:#231815;opacity:0.3;mix-blend-mode:multiply;}.cls-9{fill:#e0e0e0;}.cls-10{fill:#010101;}.cls-11{fill:#828086;}.cls-12{fill:#e4cb80;}.cls-13{fill:#272631;}.cls-14{fill:#f3eee7;}.cls-15{fill:#fff;}.cls-16{fill:#d3d4d4;}.cls-17{fill:#ea6977;}</style><clipPath id="clip-path"><path class="cls-1" d="M117.11,67.4a93,93,0,0,0,4-26.68c-.26-7.4-2.84-9.17-7.13-7.93-4,1.16-11,6-19.16,14.4-1,1-2.62,2.82-5.15,2.25a60.76,60.76,0,0,0-29.36,0c-2.53.57-4.17-1.23-5.16-2.25C46.92,38.74,40,34,36,32.79c-4.29-1.24-6.87.53-7.13,7.93a93,93,0,0,0,4,26.68c.75,2.54-.39,7.16-1,10a78.07,78.07,0,0,0-2.13,17.14,29.25,29.25,0,0,0,8.52,21,.87.87,0,0,0,.21.34,34.13,34.13,0,0,0,9.71,6.85c9.87,4.56,20.71,4.65,26.88,4.65s17-.09,26.88-4.65a34.13,34.13,0,0,0,9.71-6.85.87.87,0,0,0,.21-.34,29.25,29.25,0,0,0,8.52-21,78.07,78.07,0,0,0-2.13-17.14C117.5,74.56,116.36,69.94,117.11,67.4Z"/></clipPath></defs><title>UI_Icons_v1</title><g class="cls-2"><g id="Layer_1" data-name="Layer 1"><path class="cls-3" d="M147.55,75A72.6,72.6,0,1,1,75,2.4,72.61,72.61,0,0,1,147.55,75Z"/><path class="cls-4" d="M147.65,75a73.14,73.14,0,0,0-1.39-14.14L118.9,33.5,38.26,115.91l31.47,31.47c1.76.13,3.53.22,5.32.22A72.61,72.61,0,0,0,147.65,75Z"/><path class="cls-5" d="M117.11,67.4a93,93,0,0,0,4-26.68c-.26-7.4-2.84-9.17-7.13-7.93-4,1.16-11,6-19.16,14.4-1,1-2.62,2.82-5.15,2.25a60.76,60.76,0,0,0-29.36,0c-2.53.57-4.17-1.23-5.16-2.25C46.92,38.74,40,34,36,32.79c-4.29-1.24-6.87.53-7.13,7.93a93,93,0,0,0,4,26.68c.75,2.54-.39,7.16-1,10a78.07,78.07,0,0,0-2.13,17.14c-.16,13.61,8.65,23.54,18.48,28.08S68.78,127.2,75,127.2s17,0,26.84-4.58,18.64-14.47,18.48-28.08a78.07,78.07,0,0,0-2.13-17.14C117.5,74.56,116.36,69.94,117.11,67.4Z"/><path class="cls-6" d="M111.34,115c-2.44-.93-7.66-2.64-11.66-5.47a71,71,0,0,1-9.16-8.49c-6.18-6.45-13-9.33-15.57-9.33s-9.39,2.88-15.57,9.33a71,71,0,0,1-9.16,8.49c-4,2.83-9.22,4.54-11.66,5.47-.43.17-.63.46-.2.89a34.13,34.13,0,0,0,9.71,6.85c9.87,4.56,20.71,4.65,26.88,4.65s17-.09,26.88-4.65a34.13,34.13,0,0,0,9.71-6.85C112,115.48,111.77,115.19,111.34,115Z"/><g class="cls-7"><polygon class="cls-8" points="94.02 99.71 117.11 122.79 75.49 132.94 56.44 113.88 94.02 99.71"/></g><path class="cls-9" d="M75,101.74c-8.34,0-16.38,10.18-16,10.66,3.8,4.91,9.3,8.56,16,8.56s12.21-3.65,16-8.56C91.33,111.92,83.29,101.74,75,101.74Z"/><path class="cls-10" d="M85.74,114.64c-2.89-.55-9.53-12.87-10.79-14-1.27,1.13-7.9,13.45-10.79,14-2.47.47-1.27,1,.35,1.13,3.48.27,8.57-1.65,10.44-1.65s7,1.92,10.44,1.65C87,115.65,88.21,115.11,85.74,114.64Z"/><path class="cls-11" d="M40.36,66.05c-1.41.68-2.55.63-3.31-.52C33.3,59.91,29,37.87,32.41,35.34c3.64-2.69,17.21,8.32,19.17,18.35C52.37,57.74,46.69,63,40.36,66.05Z"/><path class="cls-11" d="M109.54,66.05c1.41.68,2.55.63,3.31-.52,3.75-5.62,8.06-27.66,4.64-30.19-3.64-2.69-17.21,8.32-19.17,18.35C97.53,57.74,103.21,63,109.54,66.05Z"/><path class="cls-12" d="M57.28,76C50.54,74.47,46,79.38,45.44,82s1.38,9,8.12,10.49,11.25-3.39,11.84-6C65.81,84.65,63.77,77.45,57.28,76Z"/><path class="cls-13" d="M61.49,85.83A6.28,6.28,0,1,1,57,78.17,6.27,6.27,0,0,1,61.49,85.83Z"/><path class="cls-14" d="M59.66,83.25a1.55,1.55,0,1,1-1.17-1.85A1.54,1.54,0,0,1,59.66,83.25Z"/><path class="cls-12" d="M92.62,76c6.74-1.52,11.25,3.39,11.84,6s-1.38,9-8.12,10.49-11.25-3.39-11.84-6C84.09,84.65,86.13,77.45,92.62,76Z"/><path class="cls-13" d="M88.41,85.83a6.28,6.28,0,1,0,4.48-7.66A6.27,6.27,0,0,0,88.41,85.83Z"/><path class="cls-14" d="M90.24,83.25a1.55,1.55,0,1,0,1.17-1.85A1.55,1.55,0,0,0,90.24,83.25Z"/><path class="cls-15" d="M96.69,105.47c-.27-3.65-3.21-7.32-7.93-9.72-6.05-3.07-5.57-6.17-6.48-13.44a12.45,12.45,0,0,0-1.39-4.92,20.24,20.24,0,0,0-1.83-2.28c-.48-.54-1-1-1.62-3.48-.78-3.44-1.76-5.14-2.49-5.14s-1.71,1.7-2.49,5.14c-.57,2.5-1.14,2.94-1.62,3.48A20.24,20.24,0,0,0,69,77.39a12.45,12.45,0,0,0-1.39,4.92c-.91,7.27-.44,10.37-6.48,13.44-4.72,2.4-7.66,6.07-7.93,9.72-.48,6.42,4.64,12,12.18,10.91a15.91,15.91,0,0,0,8.2-3.86,4.21,4.21,0,0,0,1-2.92c0-.74.18-1.59.19-2.14l.08-3.34H75l.08,3.34c0,.55.18,1.4.19,2.14a4.21,4.21,0,0,0,1,2.92,15.91,15.91,0,0,0,8.2,3.86C92.05,117.5,97.17,111.89,96.69,105.47Z"/><path class="cls-16" d="M59.52,105.16a.94.94,0,0,1-1,.89.93.93,0,0,1,.08-1.86A.94.94,0,0,1,59.52,105.16Z"/><path class="cls-16" d="M63,105.49a.93.93,0,0,1-1,.88.93.93,0,1,1,1-.88Z"/><path class="cls-16" d="M65.89,105.67a.91.91,0,0,1-1,.88.93.93,0,0,1-.89-1,.94.94,0,0,1,1-.89A.92.92,0,0,1,65.89,105.67Z"/><path class="cls-16" d="M59.07,109.82a.93.93,0,1,1-.88-1A.91.91,0,0,1,59.07,109.82Z"/><path class="cls-16" d="M62.81,109.69A.93.93,0,1,1,61,109.6a.93.93,0,0,1,1-.88A.91.91,0,0,1,62.81,109.69Z"/><path class="cls-16" d="M65.89,108.9a.91.91,0,0,1-1,.88.9.9,0,0,1-.87-1,.92.92,0,1,1,1.84.08Z"/><path class="cls-16" d="M90.38,105.16a.94.94,0,0,0,1,.89.93.93,0,0,0-.08-1.86A.94.94,0,0,0,90.38,105.16Z"/><path class="cls-16" d="M86.94,105.49a.93.93,0,0,0,1,.88.93.93,0,1,0-1-.88Z"/><path class="cls-16" d="M84,105.67a.91.91,0,0,0,1,.88.93.93,0,0,0,.89-1,.94.94,0,0,0-1-.89A.92.92,0,0,0,84,105.67Z"/><path class="cls-16" d="M90.82,109.82a.93.93,0,0,0,1.86-.08.93.93,0,0,0-1.86.08Z"/><path class="cls-16" d="M87.09,109.69a.93.93,0,1,0,1.85-.09.93.93,0,0,0-1-.88A.91.91,0,0,0,87.09,109.69Z"/><path class="cls-16" d="M84,108.9a.92.92,0,1,0,.88-1A.91.91,0,0,0,84,108.9Z"/><path class="cls-17" d="M75,103.85c-2.91,0-5.22.54-5.34,1.52s2.09,1.53,3.28,2.15c.92.48,1.11,1.44,1.46,2,.18.32.49.52.6.5s.43-.18.6-.5c.35-.61.54-1.57,1.46-2,1.18-.62,3.4-1.18,3.28-2.15S77.87,103.85,75,103.85Z"/></g></g></svg>