<svg xmlns="http://www.w3.org/2000/svg" viewBox="0 0 150 150"><defs><style>.cls-1{isolation:isolate;}.cls-2{fill:#f7976e;}.cls-3{fill:#d87756;}.cls-4{fill:#242323;}.cls-5{fill:#575757;}.cls-6{fill:#1f9abf;}.cls-10,.cls-7,.cls-8{fill:#fff;mix-blend-mode:lighten;}.cls-7{opacity:0.2;}.cls-8{opacity:0.3;}.cls-9{fill:#010101;}.cls-11{fill:#1c1814;}</style></defs><title>UI_Icons_v1</title><g class="cls-1"><g id="Layer_1" data-name="Layer 1"><circle class="cls-2" cx="75.16" cy="74.76" r="71.52"/><path class="cls-3" d="M77.62,146.22a71.52,71.52,0,0,0,68.61-63.46L116.69,53.21l-2.61,2.32-17-17-24.27,14-8.77-8.76L50.65,57.57l4.07,14.91,8.05,5.15L33.64,102.24Z"/><rect class="cls-4" x="45.02" y="43.14" width="19.41" height="20.86" rx="1.75"/><polygon class="cls-4" points="97.12 38.56 87.39 38.56 77.67 38.56 67.31 54.7 87.39 57.57 107.47 54.7 97.12 38.56"/><rect class="cls-5" x="32.48" y="51.82" width="85.36" height="51.82" rx="4.34"/><circle class="cls-4" cx="87.39" cy="77.18" r="28.78"/><circle class="cls-6" cx="87.39" cy="77.18" r="23.03"/><circle class="cls-7" cx="87.39" cy="77.18" r="18.64" transform="translate(-22.88 39.32) rotate(-22.5)"/><path class="cls-8" d="M54.63,51.82H36.83a4.34,4.34,0,0,0-4.35,4.34V99.3a4.35,4.35,0,0,0,4.35,4.34h17.8V64.5A12.68,12.68,0,0,1,67.31,51.82Z"/><path class="cls-5" d="M46,55.86c0,.94-2.18,1.71-4.87,1.71s-4.87-.77-4.87-1.71,2.18-1.71,4.87-1.71S46,54.91,46,55.86Z"/><ellipse class="cls-5" cx="50.65" cy="55.86" rx="2.8" ry="1.71"/><path class="cls-4" d="M32.48,63.05V99.3a4.35,4.35,0,0,0,4.35,4.34h17.8V64.5a13.76,13.76,0,0,1,.09-1.45Z"/><path class="cls-9" d="M48.73,67.45a1.32,1.32,0,0,0-1.32-1.33H32.48v2.65H47.41A1.32,1.32,0,0,0,48.73,67.45Z"/><path class="cls-9" d="M47.41,72.48H32.48v2.65H47.41a1.33,1.33,0,0,0,0-2.65Z"/><path class="cls-9" d="M47.41,78.84H32.48v2.65H47.41a1.33,1.33,0,0,0,0-2.65Z"/><path class="cls-9" d="M47.41,85.2H32.48v2.65H47.41a1.33,1.33,0,0,0,0-2.65Z"/><path class="cls-9" d="M47.41,91.56H32.48V94.2H47.41a1.32,1.32,0,1,0,0-2.64Z"/><path class="cls-9" d="M47.41,97.91H32.48V99.3a4.38,4.38,0,0,0,.21,1.26H47.41a1.33,1.33,0,0,0,0-2.65Z"/><circle class="cls-10" cx="77.78" cy="74.07" r="4.36"/><path class="cls-10" d="M87.5,67.45a2.68,2.68,0,1,1-2.68-2.69A2.68,2.68,0,0,1,87.5,67.45Z"/><polygon class="cls-5" points="73.71 44.73 101.07 44.73 97.12 38.56 87.39 38.56 77.67 38.56 73.71 44.73"/><polygon class="cls-8" points="76.81 43.03 78.59 40.25 96.19 40.25 97.97 43.03 76.81 43.03"/><path class="cls-11" d="M114.84,56.36a2.21,2.21,0,1,1-2.21-2.21A2.21,2.21,0,0,1,114.84,56.36Z"/><path class="cls-11" d="M61.86,97.91a2.21,2.21,0,1,1-2.21-2.2A2.21,2.21,0,0,1,61.86,97.91Z"/><path class="cls-8" d="M62.68,43.14H46.76A1.74,1.74,0,0,0,45,44.89v1.24h19.4V44.89A1.74,1.74,0,0,0,62.68,43.14Z"/></g></g></svg>