<svg id="Layer_1" data-name="Layer 1" xmlns="http://www.w3.org/2000/svg" viewBox="0 0 150 150"><defs><style>.cls-1{fill:#48bd9f;}.cls-2{fill:#318f78;}.cls-3{fill:#31545c;}.cls-4{fill:#8a9298;}.cls-5{fill:#f8f8f9;}.cls-6{fill:#9da3a8;}.cls-7{fill:#d3d4d6;}.cls-8{fill:#78838a;}</style></defs><title>UI_Icons_v1</title><circle class="cls-1" cx="75" cy="75" r="72.36" transform="translate(-16.74 128.24) rotate(-75.13)"/><path class="cls-2" d="M147.33,75.91l-46.5-46.5a7.83,7.83,0,0,0-6.67-2.33A31.61,31.61,0,0,0,88,28.85c-3.53,1.27-7.17,2.59-11.78,1.68A23.17,23.17,0,0,1,67.85,27a5.13,5.13,0,0,0-4.39-.62A5.59,5.59,0,0,0,60,29.74l-.38,1a3.29,3.29,0,0,0,.89,3.68L76.21,50.13v9H74.83a1,1,0,0,0-.9.6.92.92,0,0,0-.07.38v2.89a.93.93,0,0,0,.28.69l2.07,2v9.56a24.53,24.53,0,0,0-15,42l28.58,28.58A72.36,72.36,0,0,0,147.33,75.91Z"/><rect class="cls-3" x="64.64" y="87.82" width="11.92" height="3.54" rx="0.87"/><polygon class="cls-3" points="79.86 99.78 72.58 89.11 70.6 90.46 76.95 99.78 79.86 99.78"/><rect class="cls-4" x="77.67" y="77.55" width="1.47" height="44.45"/><rect class="cls-4" x="56.18" y="99.04" width="44.45" height="1.47" transform="translate(-47.59 84.66) rotate(-45)"/><rect class="cls-4" x="56.18" y="99.04" width="44.45" height="1.47"/><rect class="cls-4" x="77.67" y="77.55" width="1.47" height="44.45" transform="translate(-47.59 84.67) rotate(-45)"/><rect class="cls-4" x="77.67" y="77.55" width="1.47" height="44.45" transform="translate(-32.22 37.6) rotate(-22.5)"/><rect class="cls-4" x="56.18" y="99.04" width="44.45" height="1.47" transform="translate(-43.78 134.02) rotate(-67.49)"/><rect class="cls-4" x="56.18" y="99.04" width="44.45" height="1.47" transform="translate(-32.22 37.61) rotate(-22.51)"/><rect class="cls-4" x="77.67" y="77.55" width="1.47" height="44.45" transform="translate(-43.78 134.04) rotate(-67.5)"/><path class="cls-5" d="M78.41,124.34A24.57,24.57,0,1,1,103,99.78,24.59,24.59,0,0,1,78.41,124.34Zm0-44.42A19.86,19.86,0,1,0,98.27,99.78,19.88,19.88,0,0,0,78.41,79.92Z"/><path class="cls-3" d="M78.41,124.34A24.57,24.57,0,1,1,103,99.78,24.59,24.59,0,0,1,78.41,124.34Zm0-46A21.45,21.45,0,1,0,99.86,99.78,21.47,21.47,0,0,0,78.41,78.33Z"/><rect class="cls-3" x="80.5" y="98.35" width="2.4" height="12.51" transform="translate(-44.75 64.26) rotate(-34.31)"/><path class="cls-6" d="M78.41,102a2.2,2.2,0,0,1-2.2-2.2V39.51a2.2,2.2,0,1,1,4.4,0V99.78A2.21,2.21,0,0,1,78.41,102Z"/><path class="cls-7" d="M77.67,99.78V39.51a2.2,2.2,0,0,1,1.47-2.07,2.16,2.16,0,0,0-2.93,2.07V99.78a2.19,2.19,0,0,0,2.93,2.07A2.21,2.21,0,0,1,77.67,99.78Z"/><path class="cls-4" d="M78.41,37.3a2.26,2.26,0,0,0-.74.14,2.19,2.19,0,0,1,1.47,2.07V99.78a2.2,2.2,0,0,1-1.47,2.07,2.26,2.26,0,0,0,.74.13,2.21,2.21,0,0,0,2.2-2.2V39.51A2.21,2.21,0,0,0,78.41,37.3Z"/><rect class="cls-6" x="73.86" y="97.35" width="9.1" height="4.85" rx="0.75"/><path class="cls-7" d="M82,97.35H74.83a1,1,0,0,0-1,1V99.8a1,1,0,0,1,1-1H82a1,1,0,0,1,1,1V98.33A1,1,0,0,0,82,97.35Z"/><rect class="cls-6" x="73.86" y="59.18" width="9.1" height="4.85" rx="0.75"/><path class="cls-4" d="M82,62.56H74.83a1,1,0,0,1-1-1v1.47a1,1,0,0,0,1,1H82a1,1,0,0,0,1-1V61.58A1,1,0,0,1,82,62.56Z"/><path class="cls-7" d="M82,59.18H74.83a1,1,0,0,0-1,1v1.46a1,1,0,0,1,1-1H82a1,1,0,0,1,1,1V60.16A1,1,0,0,0,82,59.18Z"/><path class="cls-8" d="M79.57,100.1A1.06,1.06,0,1,1,78.51,99,1.05,1.05,0,0,1,79.57,100.1Z"/><path class="cls-3" d="M101.37,30a7.9,7.9,0,0,0-7.21-2.91A31.61,31.61,0,0,0,88,28.85c-3.53,1.27-7.17,2.59-11.78,1.68A23.17,23.17,0,0,1,67.85,27a5.13,5.13,0,0,0-4.39-.62A5.59,5.59,0,0,0,60,29.74l-.38,1a3.27,3.27,0,0,0,1.27,4c3,1.8,9,4.87,15.81,5.25,5.78.32,9.93-1.85,14-4,3.14-1.64,6.12-3.2,9.67-3.41a1.53,1.53,0,0,0,1.31-.94A1.57,1.57,0,0,0,101.37,30Z"/><rect class="cls-3" x="79.14" y="108.68" width="11.92" height="3.54" rx="0.87"/></svg>