<svg id="Layer_1" data-name="Layer 1" xmlns="http://www.w3.org/2000/svg" viewBox="0 0 150 150"><defs><style>.cls-1{fill:#78cdd1;}.cls-2{fill:#22adb1;}.cls-3{fill:#e3a14f;}.cls-4{fill:#fec35a;}.cls-5{fill:#fff;}.cls-6{fill:#da5256;}.cls-7{fill:#f3716d;}.cls-8{fill:#17738a;}</style></defs><title>UI_Icons_v1</title><circle class="cls-1" cx="75" cy="75" r="71.77" transform="translate(-23.37 35.34) rotate(-23.05)"/><path class="cls-2" d="M83.86,146.22a71.83,71.83,0,0,0,60.38-52.31L81.19,30.85l-3.53,1.41-24.8,38L24.28,86.35l7.15,7.15-.57-.28Z"/><path class="cls-3" d="M122.05,77.27h0c-1.16-4.16-3.64-7-6.51-7a4.61,4.61,0,0,0-2.39.7c-1.6-3.78-4-6.18-6.59-6.18-4.81,0-8.72,8-8.72,17.81s3.91,17.8,8.72,17.8c2.63,0,5-2.39,6.59-6.17a4.61,4.61,0,0,0,2.39.7c2.87,0,5.35-2.87,6.51-7h0a5.31,5.31,0,0,0,0-10.61Z"/><path class="cls-3" d="M28,77.27h0c1.16-4.16,3.64-7,6.51-7a4.61,4.61,0,0,1,2.39.7c1.6-3.78,4-6.18,6.59-6.18,4.81,0,8.72,8,8.72,17.81s-3.91,17.8-8.72,17.8c-2.63,0-5-2.39-6.59-6.17a4.61,4.61,0,0,1-2.39.7c-2.87,0-5.35-2.87-6.51-7h0a5.31,5.31,0,0,1,0-10.61Z"/><path class="cls-4" d="M97.93,79.63c.68,6,4.27,10.65,8.59,10.65,2.63,0,5-1.72,6.59-4.42a6,6,0,0,0,2.39.49c2.87,0,5.35-2,6.51-5h0a5.93,5.93,0,0,0,4.34-1.7,5.2,5.2,0,0,0-4.34-2.36h0c-1.16-4.16-3.64-7-6.51-7a4.61,4.61,0,0,0-2.39.7c-1.6-3.78-4-6.18-6.59-6.18C102.2,64.77,98.61,71.2,97.93,79.63Z"/><path class="cls-4" d="M36.89,71a4.61,4.61,0,0,0-2.39-.7c-2.87,0-5.35,2.87-6.51,7h0a5.2,5.2,0,0,0-4.34,2.36A5.93,5.93,0,0,0,28,81.33h0c1.16,3,3.64,5,6.51,5a6,6,0,0,0,2.39-.49c1.6,2.7,4,4.42,6.59,4.42,4.32,0,7.91-4.61,8.59-10.65-.68-8.43-4.27-14.86-8.59-14.86C40.85,64.77,38.49,67.17,36.89,71Z"/><circle class="cls-5" cx="75" cy="37.05" r="8.76"/><rect class="cls-6" x="60.79" y="42.93" width="28.42" height="28.42" transform="translate(-18.44 69.77) rotate(-45)"/><path class="cls-6" d="M75,78.74a1.53,1.53,0,0,1-1.06-.44L53.85,58.2a1.48,1.48,0,0,1,0-2.11L73.94,36a1.51,1.51,0,0,1,2.12,0l20.09,20.1a1.48,1.48,0,0,1,0,2.11L76.06,78.3A1.53,1.53,0,0,1,75,78.74ZM57,57.15l18,18,18-18-18-18Z"/><ellipse class="cls-5" cx="75" cy="82.58" rx="31.52" ry="35.81"/><path class="cls-7" d="M88.6,92.85c-3,3.55-10.07,5.58-13.6,5.58s-10.56-2-13.6-5.58c-5.32-6.21-15.62-4.52-15.62,3.3,0,12.28,13.08,22.24,29.22,22.24s29.22-10,29.22-22.24C104.22,88.33,93.92,86.64,88.6,92.85Z"/><path class="cls-6" d="M85.42,84.37A10.42,10.42,0,1,1,75,74,10.41,10.41,0,0,1,85.42,84.37Z"/><path class="cls-7" d="M79.27,78.22A4.27,4.27,0,1,1,75,74,4.27,4.27,0,0,1,79.27,78.22Z"/><path class="cls-8" d="M75,110.15a27.54,27.54,0,0,1-19.54-8.09A1.49,1.49,0,1,1,57.57,100a24.68,24.68,0,0,0,34.86,0,1.49,1.49,0,1,1,2.11,2.11A27.54,27.54,0,0,1,75,110.15Z"/><path class="cls-8" d="M63.32,78.28a1.48,1.48,0,0,1-1-.43,5.4,5.4,0,0,0-7.63,0,1.5,1.5,0,0,1-2.11-2.12,8.39,8.39,0,0,1,11.85,0,1.49,1.49,0,0,1-1.06,2.55Z"/><path class="cls-8" d="M86.68,78.28a1.49,1.49,0,0,1-1.06-2.55,8.39,8.39,0,0,1,11.85,0,1.5,1.5,0,0,1-2.11,2.12,5.4,5.4,0,0,0-7.63,0A1.48,1.48,0,0,1,86.68,78.28Z"/></svg>