<svg id="Layer_1" data-name="Layer 1" xmlns="http://www.w3.org/2000/svg" viewBox="0 0 150 150"><defs><style>.cls-1{fill:#1f9abf;}.cls-2{fill:#1786a0;}.cls-3{fill:#fff;}.cls-4{fill:#d8d9d8;}.cls-5{fill:#353635;}</style></defs><title>UI_Icons_v1</title><path class="cls-1" d="M147.6,75A72.6,72.6,0,1,1,75,2.4,72.61,72.61,0,0,1,147.6,75Z"/><path class="cls-2" d="M85,146.89a72.61,72.61,0,0,0,61.85-61.72L108.22,46.52,85,71.85,71,84.73l4.77,6.39L43.37,105.24Z"/><circle class="cls-3" cx="75" cy="75" r="43.77"/><path class="cls-4" d="M118.77,75A43.77,43.77,0,0,0,75,31.23v87.54A43.77,43.77,0,0,0,118.77,75Z"/><path class="cls-5" d="M109.87,92.15l-.4-.5V76.48c.16-.18.32-.35.48-.54,4.2-5,5.88-12.85,6-13.18l0-.13H117a43.73,43.73,0,0,0-11.65-19.16v1.15c-1.76-.34-10.13-1.89-14.54-1.55l-.65,0c-4.06-4.29-11.5-6.66-14.17-7.39l-.2-.41V31.25l-.78,0-.63,0v4.06l-.19.36c-2.48.67-10.17,3-14.32,7.43-.17,0-.35,0-.51,0-4.53-.35-13.24,1.29-14.69,1.58V43.47A43.73,43.73,0,0,0,33,62.63h1.07l0,.13c.07.33,1.75,8.15,5.95,13.18l.48.54V91.65l-.4.5L35.76,94.4l.58,1.13,4.48-2.31L41,93l14.19,8.3.29.8,7.57,14.08.12.35-.46.54a43.75,43.75,0,0,0,24.5,0l-.46-.54.12-.35,7.57-14.08.29-.8L109,93l.22.27,4.48,2.31.58-1.13ZM54.08,74.93l-12.74.56L41,75.12c-4-4.78-5.66-12.54-5.67-12.56l-.09-.87L44.2,46.1l.58-.19c.1,0,9.82-1.94,14.47-1.57h.27l4.31,12.8-.22.22c-5.53,5.44-9.25,16.85-9.37,17.23Zm39.25,26.6-7.58,14.08-.1.31H64.35l-.1-.31-7.58-14.08-.13-.36,7.36-9,.29.1a60.34,60.34,0,0,0,10,1.25,93.31,93.31,0,0,0,11.59-1.25l.28-.15,7.4,9.1Zm-7-11-.81.45a93.93,93.93,0,0,1-11.28,1.22A60.42,60.42,0,0,1,64.52,91l-.67-.22L55.18,75.54l.23-.45c0-.12,3.78-11.59,9.09-16.82l.46-.45H85l.46.45c5.31,5.23,9,16.7,9.09,16.82l.23.45ZM109,75.12l-.33.37-12.73-.56-.16-.33c-.12-.38-3.84-11.79-9.37-17.23-.08-.08-.15-.14-.22-.22l4.31-12.79.42,0c4.65-.37,14.37,1.55,14.47,1.57l.4.13,9,15.65-.09.87S113,70.34,109,75.12Z"/></svg>