<svg id="Layer_1" data-name="Layer 1" xmlns="http://www.w3.org/2000/svg" viewBox="0 0 150 150"><defs><style>.cls-1{fill:#665a8c;}.cls-2{fill:#554a71;}.cls-3{fill:#d8d9d8;}.cls-4{fill:#fff;}.cls-5{fill:#f0575d;}.cls-6{fill:#1f9abf;}.cls-7{fill:#7d7d7d;}</style></defs><title>UI_Icons_v1</title><circle class="cls-1" cx="75" cy="75" r="72.6"/><path class="cls-2" d="M147.4,80.05l-30-30-24,11.39L51.49,69.56,56.2,73,34.6,77.67l10,10-2.81,2.71,2.94,2.94,2.07,5.22,46.72,46.72A72.62,72.62,0,0,0,147.4,80.05Z"/><rect class="cls-3" x="49.19" y="41.84" width="51.62" height="30.52"/><circle class="cls-4" cx="100.81" cy="62.73" r="20.89" transform="translate(-6.91 12.79) rotate(-7.02)"/><rect class="cls-3" x="41.75" y="79.94" width="5.14" height="10.4"/><path class="cls-4" d="M89.29,99.82H54.7a9.49,9.49,0,0,1-9.47-9.48H43.31A11.4,11.4,0,0,0,54.7,101.73H89.29a9.49,9.49,0,0,1,9.47,9.48V118h1.92v-6.83A11.4,11.4,0,0,0,89.29,99.82Z"/><circle class="cls-4" cx="49.19" cy="62.73" r="20.89" transform="translate(-23.16 96.19) rotate(-76.72)"/><circle class="cls-5" cx="100.81" cy="53.79" r="3.71"/><circle class="cls-5" cx="100.81" cy="71.67" r="3.71"/><circle class="cls-6" cx="91.87" cy="62.73" r="3.71"/><circle class="cls-6" cx="109.75" cy="62.73" r="3.71"/><path class="cls-5" d="M76.48,61.69h-3a1.22,1.22,0,0,0,0,2.44h3a1.22,1.22,0,0,0,0-2.44Z"/><path class="cls-5" d="M76.48,55.88h-3a1.22,1.22,0,0,0,0,2.44h3a1.22,1.22,0,0,0,0-2.44Z"/><path class="cls-5" d="M73.52,52.51h3a1.22,1.22,0,0,0,0-2.44h-3a1.22,1.22,0,0,0,0,2.44Z"/><rect class="cls-3" x="95.71" y="111.21" width="8.06" height="13.67"/><rect class="cls-4" x="96.44" y="124.88" width="6.6" height="4.47"/><rect class="cls-7" x="97.29" y="127.11" width="1.59" height="1.18"/><rect class="cls-7" x="100.6" y="127.11" width="1.59" height="1.18"/><path class="cls-6" d="M60.9,60.43H51.49V51a1,1,0,0,0-1-.94h-2.7a1,1,0,0,0-1,.94v9.41H37.48a.94.94,0,0,0-.94,1v2.7a.94.94,0,0,0,.94.94h9.41v9.42a1,1,0,0,0,1,.94h2.7a1,1,0,0,0,1-.94V65H60.9a.94.94,0,0,0,.94-.94v-2.7A.94.94,0,0,0,60.9,60.43Z"/></svg>